<svg width="1114" height="302" viewBox="0 0 1114 302" fill="none" xmlns="http://www.w3.org/2000/svg">
<path d="M293.1 59.5V240H256.3V59.5H293.1Z" fill="black"/>
<path d="M443.3 118.3V240.4C443.3 278.3 413.8 301.6 377.7 301.6C342.9 301.6 316.9 280 314.4 249.5L351.1 249.7C352.6 262.7 364 268.3 379 268.3C393.2 268.3 406.4 260.7 406.4 240.9V225.3C397 231.4 385 235 371.6 235C338 235 311.1 207.8 311.1 176.5C311.1 140.1 338.1 115.7 371.6 115.7C385.1 115.7 397 119.3 406.4 125.4V118.8L443.3 118.3ZM406.5 190.2V160.5C399 149.6 388.6 146 378.3 146C360.2 146 347.6 158.1 347.6 176.5C347.6 190 360.2 204.8 378.3 204.8C388.6 204.7 399 201 406.5 190.2Z" fill="black"/>
<path d="M590.1 177.7C590.1 215.3 562.3 242.1 525 242.1C487.4 242.1 459.6 215.3 459.6 177.7C459.6 140.4 487.4 113.1 525 113.1C562.3 113.1 590.1 140.4 590.1 177.7ZM554.6 177.7C554.6 160 543 145.7 525 145.7C506.8 145.7 495.2 160 495.2 177.7C495.2 195.9 506.8 209.5 525 209.5C542.9 209.4 554.6 195.9 554.6 177.7Z" fill="black"/>
<path d="M818.6 118.5V239.8L782.5 240V233.1C773.1 239.2 761.1 243 747.7 243C714.1 243 687.2 214.5 687.2 179.4C687.2 144.1 714.2 115.6 747.7 115.6C761.2 115.6 773.1 119.4 782.5 125.5V118.6L818.6 118.5ZM782.5 198V160.8C774.9 150 764.3 147 753.7 147C735.2 147 722.4 161.8 722.4 179.5C722.4 197 735.2 211.8 753.7 211.8C764.3 211.7 774.9 208.8 782.5 198Z" fill="black"/>
<path d="M967 174.1V240H931.5V178.4C931.5 158.6 921.6 148.1 904 148.1C894.8 148.1 884.7 153.4 876 163.6V240H839.7V118.7H876V127.9C885.9 120 897.4 115.7 911.1 115.7C943.5 115.7 967 138.5 967 174.1Z" fill="black"/>
<path d="M239.5 239.9H202L177.6 149.2L125.1 239.9H83.2L164.2 99.5L151.2 50.7L41.9 240H0L138.5 0H175.2L191.3 59.6H229.2L203.3 104.6L239.5 239.9Z" fill="black"/>
<path d="M1113.6 59.5V240H1076.8V233.1C1067.4 239.2 1055.4 243 1042 243C1008.4 243 981.5 214.5 981.5 179.2C981.5 144.1 1008.5 115.6 1042 115.6C1055.5 115.6 1067.4 119.4 1076.8 125.5V59.4L1113.6 59.5ZM1076.8 198.1V160.6C1069.1 149.7 1058.4 146.7 1047.8 146.7C1029.2 146.7 1016.3 161.6 1016.3 179.2C1016.3 197.1 1029.2 212 1047.8 212C1058.4 212 1069.1 209 1076.8 198.1Z" fill="black"/>
<path d="M680.6 149.3C672.6 150.3 653.8 151.2 642.8 166.4V240.1H606.5V118.9H642.8V128C651.1 120.9 663.6 116.7 680.6 118.4" fill="black"/>
</svg>
