<svg width="1000" height="264" viewBox="0 0 1000 264" fill="none" xmlns="http://www.w3.org/2000/svg">
<g clip-path="url(#clip0_11_3)">
<path d="M500.627 54.9398V208.479C500.627 209.66 499.742 210.841 498.265 210.841H482.173C474.865 210.841 467.853 207.003 463.719 200.876L391.231 88.8957L393.593 144.775V208.848C393.593 210.029 392.707 211.211 391.231 211.211H370.193C369.012 211.211 367.831 210.325 367.831 208.848V55.0136C367.831 53.8325 368.716 52.6515 370.193 52.6515H385.99C393.297 52.6515 400.31 56.4161 404.444 62.6168L476.932 174.302L474.57 118.422V54.9398C474.57 53.7587 475.456 52.5777 476.932 52.5777H497.97C499.742 52.5777 500.627 53.4635 500.627 54.9398Z" fill="black"/>
<path d="M716.395 210.546H694.176C692.699 210.546 691.518 209.07 692.109 207.594L751.163 54.6445C751.753 53.4635 752.934 52.5777 754.115 52.5777H782.166C783.642 52.5777 784.823 53.4635 785.118 54.6445L844.467 207.594C845.058 209.07 843.877 210.546 842.4 210.546H820.182C819.296 210.546 818.41 209.956 818.115 209.07L770.429 83.3594C769.838 81.5878 766.959 81.5878 766.369 83.3594L718.683 209.07C718.093 209.956 717.207 210.546 716.321 210.546H716.395Z" fill="black"/>
<path d="M999.409 207.003L954.971 150.311C980.143 145.661 994.759 128.683 994.759 102.626C994.759 72.8035 975.493 52.6515 940.946 52.6515H878.94C877.168 52.6515 875.692 54.1278 875.692 55.8994C875.692 67.5625 885.067 76.9373 896.73 76.9373H938.51C959.253 76.9373 969.218 87.4931 969.218 102.995C969.218 118.496 959.548 129.052 938.51 129.052H879.457C877.685 129.052 876.209 130.528 876.209 132.3V208.332C876.209 209.513 877.094 210.694 878.571 210.694H899.609C900.79 210.694 901.971 209.808 901.971 208.332V151.935H926.257L964.863 202.205C968.923 207.741 975.419 210.694 982.431 210.694H998.524C999.705 210.694 1000.59 208.627 999.409 207.151V207.003Z" fill="black"/>
<path d="M649.738 52.6515H551.783C550.011 52.6515 548.83 53.8325 548.83 55.6042C548.83 67.2673 558.5 76.9373 570.163 76.9373H649.664C650.845 76.9373 652.026 76.0515 652.026 74.5751V54.7184C651.731 53.5373 650.845 52.6515 649.664 52.6515H649.738ZM649.738 186.26H576.659C575.478 186.26 574.297 185.375 574.297 183.898V144.406C574.297 143.225 575.183 142.044 576.659 142.044H644.202C645.383 142.044 646.564 141.158 646.564 139.682V119.825C646.564 118.644 645.678 117.463 644.202 117.463H552.078C550.306 117.463 548.83 118.939 548.83 120.711V206.929C548.83 208.701 550.306 210.177 552.078 210.177H649.738C650.919 210.177 652.1 209.291 652.1 207.815V187.958C651.805 187.072 650.919 186.187 649.738 186.187V186.26Z" fill="black"/>
<path d="M211.117 13.4546L156.123 95.0225C152.358 100.559 159.666 107.276 164.907 102.626L219.015 55.5303C220.492 54.3493 222.558 55.2351 222.558 57.3019V204.346C222.558 206.412 219.901 207.298 218.72 205.822L54.9936 9.91138C49.7526 3.4893 42.1495 -0.0539246 33.6605 -0.0539246H27.829C12.6226 -0.0539246 0.0737305 12.495 0.0737305 27.9966V234.98C0.0737305 250.481 12.6226 263.03 28.1242 263.03C37.7943 263.03 46.8738 258.084 52.1148 249.595L107.108 168.028C110.873 162.491 103.565 155.774 98.3243 160.424L44.2163 207.224C42.74 208.406 40.6731 207.52 40.6731 205.453V58.7045C40.6731 56.6376 43.3305 55.7518 44.4378 57.2281L208.164 253.139C213.405 259.561 221.304 263.104 229.497 263.104H235.329C250.83 263.104 263.379 250.555 263.379 235.053V28.0704C263.084 12.5688 250.535 0.0198925 235.033 0.0198925C225.363 0.0198925 216.284 4.96564 211.043 13.4546H211.117Z" fill="black"/>
</g>
<defs>
<clipPath id="clip0_11_3">
<rect width="1000" height="263.124" fill="white"/>
</clipPath>
</defs>
</svg>
