<svg width="32" height="32" viewBox="0 0 32 32" fill="none" xmlns="http://www.w3.org/2000/svg">
<path d="M28 1.33333C27.416 3.25067 25.916 4.74933 24 5.33333C25.916 5.91733 27.416 7.41733 28 9.33333C28.584 7.41733 30.084 5.91867 32 5.33333C30.084 4.74933 28.584 3.25067 28 1.33333ZM2.66533 4C2.276 5.276 1.276 6.27733 0 6.66667C1.27867 7.05733 2.276 8.056 2.668 9.33333C3.05733 8.056 4.05733 7.056 5.33333 6.66667C4.05733 6.27733 3.05733 5.27733 2.66533 4ZM27.332 25.3333C26.8453 26.928 25.5947 28.1787 24 28.6667C25.5987 29.1547 26.8453 30.404 27.3347 32C27.8213 30.404 29.072 29.1547 30.6667 28.6667C29.072 28.1813 27.8213 26.9293 27.332 25.3333ZM14.6667 0C14.2773 1.27733 13.2773 2.27733 12 2.66667C13.2787 3.05733 14.2773 4.056 14.6693 5.33333C15.0587 4.056 16.0587 3.056 17.3333 2.66667C16.0587 2.27733 15.0587 1.27733 14.6667 0ZM3.99867 24C3.41867 25.9147 1.91467 27.4147 0 28C1.91867 28.5853 3.41867 30.0853 4 32C4.58533 30.0853 6.08533 28.5853 7.99867 28C6.08533 27.4173 4.58533 25.9147 3.99867 24ZM22.7493 8H9.344L2.66667 15.5L16 32L29.3333 15.5933L22.7493 8ZM10.224 16L14.276 25.624L6.5 16H10.224ZM20.3293 16L16 26.2813L11.6707 16H20.3293V16ZM12.276 14.6667L16 10.9427L19.724 14.6667H12.276V14.6667ZM21.776 16H25.5667L17.7013 25.6787L21.776 16ZM25 14.6667H21.6093L17.6093 10.6667H21.532L25 14.6667ZM10.5387 10.6667H14.3907L10.3907 14.6667H6.97867L10.5387 10.6667V10.6667Z" fill="#fff"/>
</svg>
