<svg width="137" height="28" viewBox="0 0 137 28" fill="none" xmlns="http://www.w3.org/2000/svg">
<path d="M21 3C20.562 4.438 19.437 5.562 18 6C19.437 6.438 20.562 7.563 21 9C21.438 7.563 22.563 6.439 24 6C22.563 5.562 21.438 4.438 21 3ZM1.999 5C1.707 5.957 0.957 6.708 0 7C0.959 7.293 1.707 8.042 2.001 9C2.293 8.042 3.043 7.292 4 7C3.043 6.708 2.293 5.958 1.999 5ZM20.499 21C20.134 22.196 19.196 23.134 18 23.5C19.199 23.866 20.134 24.803 20.501 26C20.866 24.803 21.804 23.866 23 23.5C21.804 23.136 20.866 22.197 20.499 21ZM11 2C10.708 2.958 9.958 3.708 9 4C9.959 4.293 10.708 5.042 11.002 6C11.294 5.042 12.044 4.292 13 4C12.044 3.708 11.294 2.958 11 2ZM2.999 20C2.564 21.436 1.436 22.561 0 23C1.439 23.439 2.564 24.564 3 26C3.439 24.564 4.564 23.439 5.999 23C4.564 22.563 3.439 21.436 2.999 20ZM17.062 8H7.008L2 13.625L12 26L22 13.695L17.062 8ZM7.668 14L10.707 21.218L4.875 14H7.668ZM15.247 14L12 21.711L8.753 14H15.247V14ZM9.207 13L12 10.207L14.793 13H9.207V13ZM16.332 14H19.175L13.276 21.259L16.332 14ZM18.75 13H16.207L13.207 10H16.149L18.75 13ZM7.904 10H10.793L7.793 13H5.234L7.904 10V10Z" fill="black"/>
<text fill="black" xml:space="preserve" style="white-space: pre" font-family="Bespoke Serif" font-size="24" font-weight="600" letter-spacing="0em"><tspan x="28" y="20.58">BlockGems</tspan></text>
</svg>
